<svg width="148" height="20" viewBox="0 0 148 20" fill="none" xmlns="http://www.w3.org/2000/svg">
<path d="M36.0672 17.375V2.58333H39.9594V17.375H36.0672Z" fill="#0C39DA"/>
<path d="M48.8889 10.1042V17.375H44.9968V2.58333H48.0307L53.7192 10.1042V2.58333H57.6113V17.375H54.5176L48.8889 10.1042Z" fill="#0C39DA"/>
<path d="M65.3737 2.58333L68.1481 12.2708L70.8826 2.58333H74.9743L69.7648 17.375H66.5314L61.262 2.58333H65.3737Z" fill="#0C39DA"/>
<path d="M84.4662 17.5C83.3884 17.5 82.4103 17.2847 81.5321 16.8542C80.6539 16.4236 79.9021 15.8611 79.2767 15.1667C78.6513 14.4583 78.1656 13.6528 77.8196 12.75C77.4737 11.8472 77.3007 10.9167 77.3007 9.95833C77.3007 8.98611 77.4803 8.04861 77.8396 7.14583C78.1989 6.24306 78.6979 5.45139 79.3366 4.77083C79.9886 4.07639 80.7537 3.52778 81.6319 3.125C82.5234 2.70833 83.4948 2.5 84.546 2.5C85.6238 2.5 86.6019 2.71528 87.4801 3.14583C88.3583 3.57639 89.1101 4.14583 89.7355 4.85417C90.3609 5.5625 90.84 6.36806 91.1726 7.27083C91.5186 8.17361 91.6916 9.09722 91.6916 10.0417C91.6916 11.0139 91.5119 11.9514 91.1527 12.8542C90.7934 13.7431 90.2944 14.5347 89.6557 15.2292C89.017 15.9097 88.2519 16.4583 87.3603 16.875C86.4821 17.2917 85.5174 17.5 84.4662 17.5ZM81.2527 10C81.2527 10.5 81.3192 10.9861 81.4523 11.4583C81.5853 11.9167 81.7849 12.3264 82.0511 12.6875C82.3172 13.0486 82.6499 13.3403 83.049 13.5625C83.4615 13.7847 83.9472 13.8958 84.5061 13.8958C85.065 13.8958 85.5507 13.7847 85.9632 13.5625C86.3757 13.3264 86.7083 13.0278 86.9611 12.6667C87.2273 12.2917 87.4202 11.8681 87.54 11.3958C87.673 10.9236 87.7396 10.4444 87.7396 9.95833C87.7396 9.45833 87.673 8.97917 87.54 8.52083C87.4069 8.04861 87.2007 7.63889 86.9212 7.29167C86.6551 6.93056 86.3158 6.64583 85.9033 6.4375C85.5041 6.21528 85.0317 6.10417 84.4861 6.10417C83.9273 6.10417 83.4416 6.21528 83.0291 6.4375C82.6299 6.65972 82.2972 6.95833 82.0311 7.33333C81.765 7.69444 81.5654 8.11111 81.4323 8.58333C81.3126 9.04167 81.2527 9.51389 81.2527 10Z" fill="#0C39DA"/>
<path d="M95.936 17.375V2.58333H99.8281V17.375H95.936Z" fill="#0C39DA"/>
<path d="M104.087 9.85417C104.087 8.95139 104.247 8.0625 104.566 7.1875C104.899 6.3125 105.378 5.52778 106.003 4.83333C106.629 4.13889 107.387 3.57639 108.279 3.14583C109.17 2.71528 110.188 2.5 111.332 2.5C112.703 2.5 113.887 2.79861 114.885 3.39583C115.897 3.97917 116.648 4.75695 117.141 5.72917L114.167 7.9375C114.034 7.57639 113.854 7.27778 113.628 7.04167C113.415 6.80556 113.175 6.61806 112.909 6.47917C112.643 6.34028 112.364 6.24306 112.071 6.1875C111.792 6.13195 111.519 6.10417 111.253 6.10417C110.694 6.10417 110.208 6.22222 109.796 6.45833C109.396 6.68056 109.064 6.97917 108.798 7.35417C108.545 7.71528 108.352 8.13195 108.219 8.60417C108.099 9.0625 108.039 9.52083 108.039 9.97917C108.039 10.4931 108.112 10.9861 108.259 11.4583C108.405 11.9306 108.618 12.3472 108.897 12.7083C109.177 13.0694 109.516 13.3611 109.915 13.5833C110.328 13.7917 110.787 13.8958 111.293 13.8958C111.559 13.8958 111.831 13.8681 112.111 13.8125C112.39 13.7431 112.656 13.6389 112.909 13.5C113.175 13.3472 113.408 13.1597 113.608 12.9375C113.821 12.7014 113.987 12.4167 114.107 12.0833L117.28 14.0625C117.068 14.6042 116.742 15.0903 116.302 15.5208C115.877 15.9514 115.384 16.3125 114.825 16.6042C114.28 16.8958 113.688 17.1181 113.049 17.2708C112.424 17.4236 111.811 17.5 111.213 17.5C110.161 17.5 109.197 17.2847 108.319 16.8542C107.454 16.4097 106.702 15.8264 106.063 15.1042C105.438 14.3819 104.952 13.5625 104.606 12.6458C104.26 11.7292 104.087 10.7986 104.087 9.85417Z" fill="#0C39DA"/>
<path d="M131.36 13.8333V17.375H121.261V2.58333H131.18V6.125H125.153V8.20833H130.302V11.5H125.153V13.8333H131.36Z" fill="#0C39DA"/>
<path d="M135.765 17.375V2.58333H142.272C142.964 2.58333 143.602 2.73611 144.188 3.04167C144.773 3.33333 145.272 3.72222 145.685 4.20833C146.11 4.68056 146.443 5.22917 146.683 5.85417C146.922 6.46528 147.042 7.08333 147.042 7.70833C147.042 8.56944 146.862 9.375 146.503 10.125C146.144 10.8611 145.645 11.4653 145.006 11.9375L148 17.375H143.609L141.114 12.8333H139.657V17.375H135.765ZM139.657 9.29167H142.112C142.351 9.29167 142.571 9.15278 142.771 8.875C142.983 8.59722 143.09 8.20833 143.09 7.70833C143.09 7.19444 142.97 6.80556 142.731 6.54167C142.491 6.26389 142.252 6.125 142.012 6.125H139.657V9.29167Z" fill="#0C39DA"/>
<g clip-path="url(#clip0)">
<path d="M13.6807 11.25H0V13.75H13.6807V11.25Z" fill="#0C39DA"/>
<path d="M19.8992 11.25H16.1681V13.75H19.8992V11.25Z" fill="#0C39DA"/>
<path d="M7.46218 16.25H0V18.75H7.46218V16.25Z" fill="#0C39DA"/>
<path d="M19.8992 16.25H16.1681V18.75H19.8992V16.25Z" fill="#0C39DA"/>
<path d="M8.70588 6.25H0V8.75H8.70588V6.25Z" fill="#0C39DA"/>
<path d="M19.8992 6.25H16.1681V8.75H19.8992V6.25Z" fill="#0C39DA"/>
<path d="M13.6807 1.25H0V3.75H13.6807V1.25Z" fill="#0C39DA"/>
<path d="M19.8992 1.25H16.1681V3.75H19.8992V1.25Z" fill="#0C39DA"/>
</g>
<defs>
<clipPath id="clip0">
<rect width="19.8992" height="20" fill="white"/>
</clipPath>
</defs>
</svg>
